# xmcd
#
# Track frame offsets: 
#        150
#        13905
#        30454
#        46879
#        61892
#
# Disc length: 1018 seconds
#
# Revision: 0
# Processed by: cddbd v1.5.2PL0 Copyright (c) Steve Scherf et al.
# Submitted via: ExactAudioCopyFreeDBPlugin 1.0
#
DISCID=3603f805
DTITLE=Amber Hayes - Running out of Memories
DYEAR=2013
DGENRE=Country
TTITLE0=Running out of Memories
TTITLE1=How can I feel
TTITLE2=If I were in your Boots
TTITLE3=Me and Loretta
TTITLE4=Cotton Eyed Joe
EXTD=
EXTT0=
EXTT1=
EXTT2=
EXTT3=
EXTT4=
PLAYORDER=
